<svg xmlns="http://www.w3.org/2000/svg" viewBox="0 0 100 100">
  <path fill="#ED2939" d="M50 5C25.1 5 5 25.1 5 50s20.1 45 45 45 45-20.1 45-45S74.9 5 50 5zm0 85c-22.1 0-40-17.9-40-40S27.9 10 50 10s40 17.9 40 40-17.9 40-40 40z"/>
  <path fill="#ED2939" d="M77.4 31.2c-.3-.5-.7-.9-1.2-1.2-2.5-1.7-5.4-2.9-8.5-3.6-3.1-.7-6.3-.9-9.5-.6-6.3.6-12.2 3-17.1 6.9-.5.4-.9.8-1.2 1.3-.3.5-.5 1.1-.5 1.7 0 .6.2 1.2.5 1.7.3.5.7.9 1.2 1.2 2.5 1.7 5.4 2.9 8.5 3.6 3.1.7 6.3.9 9.5.6 6.3-.6 12.2-3 17.1-6.9.5-.4.9-.8 1.2-1.3.3-.5.5-1.1.5-1.7 0-.6-.2-1.2-.5-1.7zM22.6 68.8c.3.5.7.9 1.2 1.2 2.5 1.7 5.4 2.9 8.5 3.6 3.1.7 6.3.9 9.5.6 6.3-.6 12.2-3 17.1-6.9.5-.4.9-.8 1.2-1.3.3-.5.5-1.1.5-1.7 0-.6-.2-1.2-.5-1.7-.3-.5-.7-.9-1.2-1.2-2.5-1.7-5.4-2.9-8.5-3.6-3.1-.7-6.3-.9-9.5-.6-6.3.6-12.2 3-17.1 6.9-.5.4-.9.8-1.2 1.3-.3.5-.5 1.1-.5 1.7 0 .6.2 1.2.5 1.7z"/>
</svg>
